# xmcd
#
# Track frame offsets:
#	150
#	17615
#	38000
#	57900
#	70918
#	79638
#	91530
#	104423
#	134973
#	145973
#	161098
#	176830
#	196228
#	206790
#
# Disc length: 2930 seconds
#
# Revision: 1
# Processed by: cddbd v1.4PL0 Copyright (c) Steve Scherf et al.
# Submitted via: audiograbber 1.81.03
#
DISCID=c50b700e
DTITLE=Snatch It Back - Dynamite
DYEAR=1989
DGENRE=Blues
TTITLE0=Little Miss Pleasure
TTITLE1=Kind Of Loving I Neeed
TTITLE2=I'm Not Your Fool
TTITLE3=Ballad Of Edward Johnson
TTITLE4=Dynamite
TTITLE5=Bad Reputation
TTITLE6=Feel So Good
TTITLE7=Good Morning Mr. Jones
TTITLE8=I Like You
TTITLE9=Maxime
TTITLE10=Jump Sister Bessie
TTITLE11=Talk To Your Daughter
TTITLE12=One Kiss
TTITLE13=Tore Up
EXTD=
EXTT0=
EXTT1=
EXTT2=
EXTT3=
EXTT4=
EXTT5=
EXTT6=
EXTT7=
EXTT8=
EXTT9=
EXTT10=
EXTT11=
EXTT12=
EXTT13=
PLAYORDER=
